<svg height="737" viewBox="0 0 737 737" width="737" xmlns="http://www.w3.org/2000/svg"><path d="m368.5 0c203.517 0 368.5 164.983 368.5 368.5s-164.983 368.5-368.5 368.5-368.5-164.983-368.5-368.5 164.983-368.5 368.5-368.5z" fill="#667eea"/><g fill="#fff" stroke-linecap="round" transform="translate(83 212)"><path d="m239.27366638 313.5h-238.5473209l119.27366215-312.09941602z"/><path d="m120.00000763 2.80130005-118.54727936 310.19869995h237.09455872zm0-2.80130005 119.99999237 314h-239.99998474z" fill="#a0aec0"/></g><path d="m2742 2183.766-105.973 277.234-120.027-314h41.78l78.248 204.025 78.246-204.025h55.452l78.248 204.025 78.246-204.025h41.78l-120.027 314z" fill="#fff" transform="translate(-2313 -1935)"/><path d="m61 0 61 160h-122z" fill="#667eea" transform="translate(141 322)"/></svg>