<svg xmlns="http://www.w3.org/2000/svg" width="19.373" height="16.956" viewBox="0 0 19.373 16.956"><defs><style>.a{fill:rgba(0,0,0,0.6);}</style></defs><path class="a" d="M17.345,33.2a5.7,5.7,0,0,0-7.658.568A5.7,5.7,0,0,0,2.028,33.2a5.725,5.725,0,0,0-.4,8.37l6.637,6.762a1.987,1.987,0,0,0,2.845,0l6.637-6.762A5.729,5.729,0,0,0,17.345,33.2ZM16.452,40.3,9.815,47.057a.156.156,0,0,1-.257,0L2.921,40.3a3.9,3.9,0,0,1,.276-5.7,3.836,3.836,0,0,1,5.165.4l1.324,1.351,1.324-1.351a3.834,3.834,0,0,1,5.165-.4A3.919,3.919,0,0,1,16.452,40.3Z" transform="translate(0 -31.978)"/></svg>