<svg xmlns="http://www.w3.org/2000/svg" width="21.474" height="28.631" viewBox="0 0 21.474 28.631"><defs><style>.a{fill:rgba(0,0,0,0.6);}</style></defs><path class="a" d="M20.579,2.684H20.8a.671.671,0,0,0,.671-.671V.671A.671.671,0,0,0,20.8,0H.671A.671.671,0,0,0,0,.671V2.013a.671.671,0,0,0,.671.671H.895c0,4.505,1.8,9.272,5.434,11.631C2.679,16.686.895,21.468.895,25.947H.671A.671.671,0,0,0,0,26.618V27.96a.671.671,0,0,0,.671.671H20.8a.671.671,0,0,0,.671-.671V26.618a.671.671,0,0,0-.671-.671h-.224c0-4.505-1.8-9.272-5.434-11.631C18.8,11.946,20.579,7.163,20.579,2.684Zm-17,0H17.895c0,5.683-3.2,10.289-7.158,10.289S3.579,8.367,3.579,2.684ZM17.895,25.947H3.579c0-5.683,3.2-10.289,7.158-10.289S17.895,20.265,17.895,25.947Z"/></svg>