<svg xmlns="http://www.w3.org/2000/svg" width="29.25" height="33.429" viewBox="0 0 29.25 33.429"><defs><style>.a{fill:rgba(0,0,0,0.6);}</style></defs><path class="a" d="M14.624,33.429A4.178,4.178,0,0,0,18.8,29.25H10.448A4.178,4.178,0,0,0,14.624,33.429Zm14.063-9.775C27.426,22.3,25.066,20.26,25.066,13.58A10.31,10.31,0,0,0,16.712,3.45V2.089a2.088,2.088,0,1,0-4.176,0V3.45A10.31,10.31,0,0,0,4.183,13.58c0,6.679-2.36,8.718-3.622,10.074A2.04,2.04,0,0,0,0,25.072a2.091,2.091,0,0,0,2.1,2.089H27.154a2.091,2.091,0,0,0,2.1-2.089A2.039,2.039,0,0,0,28.687,23.654Z" transform="translate(0.001)"/></svg>